<?xml version="1.0" standalone="no"?>
<!DOCTYPE svg PUBLIC "-//W3C//DTD SVG 20010904//EN"
 "http://www.w3.org/TR/2001/REC-SVG-20010904/DTD/svg10.dtd">
<svg version="1.0" xmlns="http://www.w3.org/2000/svg"
 width="1200.000000pt" height="950.000000pt" viewBox="0 0 1200.000000 950.000000"
 preserveAspectRatio="xMidYMid meet">

<g transform="translate(0.000000,950.000000) scale(0.100000,-0.100000)"
fill="#000000" stroke="none">
<path d="M1422 8239 c-37 -9 -47 -18 -83 -72 -72 -112 -85 -206 -35 -263 l22
-27 95 70 c52 38 120 86 151 106 64 40 78 60 78 110 0 60 -25 79 -111 83 -41
2 -93 -2 -117 -7z"/>
<path d="M3030 8099 c-36 -4 -189 -7 -340 -8 -375 -1 -644 -23 -770 -62 -223
-70 -431 -200 -573 -358 -80 -90 -187 -232 -185 -246 1 -5 -4 -28 -10 -50 -6
-22 -11 -96 -11 -165 -1 -203 -41 -350 -140 -505 -21 -33 -47 -81 -56 -107
l-18 -48 28 -41 c22 -35 45 -50 138 -94 62 -29 148 -67 192 -85 98 -38 327
-153 455 -228 203 -118 556 -385 695 -524 349 -352 572 -635 785 -998 72 -122
222 -437 304 -636 47 -116 86 -216 86 -221 0 -6 18 -69 41 -140 34 -110 81
-290 135 -528 16 -70 69 -467 85 -640 17 -187 23 -692 10 -771 -17 -95 -56
-172 -153 -304 -99 -135 -138 -218 -145 -311 -5 -57 -2 -70 18 -102 13 -20 31
-37 40 -37 9 0 24 -9 34 -20 33 -37 100 -42 505 -38 334 3 390 5 420 20 19 9
66 24 105 32 121 28 224 107 334 259 121 166 250 502 372 972 28 107 58 282
80 468 17 153 20 250 23 1065 1 493 6 905 11 915 11 26 56 46 82 36 47 -18 47
-16 53 -684 4 -458 8 -636 17 -651 11 -19 22 -20 200 -23 232 -2 378 -15 553
-47 336 -62 632 -166 932 -329 302 -164 467 -210 758 -210 190 1 231 7 408 61
155 48 260 103 467 246 6 5 6 11 -3 20 -6 6 -12 29 -12 49 0 21 -9 58 -19 82
-47 109 -327 503 -481 677 -213 241 -236 273 -224 304 7 18 10 18 74 17 44 -2
48 -5 164 -124 97 -100 250 -284 326 -393 198 -283 318 -480 432 -709 88 -175
112 -230 203 -470 80 -211 169 -508 194 -652 11 -57 10 -65 -13 -115 -14 -30
-60 -92 -106 -143 -131 -144 -203 -238 -253 -333 -41 -77 -47 -97 -47 -148 0
-56 3 -62 46 -112 72 -83 80 -84 541 -80 264 2 396 7 413 15 14 6 57 21 95 33
39 11 97 39 130 61 67 46 153 151 193 239 l26 55 7 590 c9 693 29 1171 54
1281 3 12 9 75 15 140 12 136 34 297 54 399 8 39 24 126 36 195 12 69 32 159
45 200 48 156 123 473 160 677 22 127 25 170 25 382 0 176 -4 251 -14 287 -8
27 -20 85 -26 129 -25 167 -88 391 -146 520 -10 22 -19 47 -20 55 -8 70 -187
401 -299 555 -114 154 -262 311 -415 437 -70 57 -270 193 -330 223 -131 66
-293 130 -450 177 l-175 52 -1850 6 c-2182 7 -1915 -11 -2380 157 -462 167
-781 252 -1215 322 -234 37 -348 52 -525 67 -44 4 -91 10 -105 13 -14 4 -54 4
-90 0z m-1202 -646 c111 -106 92 -246 -42 -315 l-39 -20 -41 29 c-84 58 -114
184 -59 254 24 32 109 99 124 99 4 0 29 -21 57 -47z"/>
<path d="M842 7250 c-23 -10 -45 -26 -48 -34 -3 -8 -12 -12 -20 -9 -29 11
-101 -64 -144 -148 -34 -69 -40 -90 -40 -143 1 -71 17 -122 54 -170 14 -19 26
-42 26 -50 0 -22 42 -20 88 4 20 10 62 43 93 72 63 61 110 157 129 270 15 85
9 206 -11 219 -23 15 -81 10 -127 -11z"/>
<path d="M5684 3054 c-11 -16 -18 -51 -20 -97 -9 -195 -15 -264 -34 -407 -44
-336 -89 -537 -191 -865 -94 -300 -191 -514 -309 -680 -38 -54 -67 -101 -64
-106 12 -21 94 -29 284 -29 268 0 319 14 444 116 113 93 218 261 309 494 99
254 169 499 226 785 46 237 58 317 71 490 5 72 12 158 16 193 5 51 4 63 -7 61
-8 -2 -32 7 -55 18 -67 36 -189 53 -368 53 -88 -1 -181 -5 -206 -10 -27 -5
-46 -5 -48 1 -7 17 -32 9 -48 -17z"/>
<path d="M8955 2744 c-119 -76 -260 -147 -347 -175 -34 -11 -89 -32 -121 -47
-38 -16 -61 -22 -65 -15 -5 7 -33 6 -92 -4 -47 -7 -145 -13 -217 -13 -87 0
-133 -3 -133 -10 0 -14 58 -78 225 -250 147 -150 213 -230 284 -339 45 -71 52
-114 28 -203 -10 -40 -32 -68 -157 -195 -80 -82 -157 -171 -173 -199 -62 -110
-100 -197 -104 -238 -6 -47 13 -146 27 -146 5 0 21 -18 37 -40 l28 -40 462 2
c323 2 465 6 473 14 8 8 7 28 -5 73 -46 179 63 423 302 671 91 96 93 98 93
146 0 115 -92 426 -218 740 -87 217 -162 336 -209 333 -10 -1 -63 -30 -118
-65z"/>
</g>
</svg>
